<?xml version="1.0" encoding="utf-8"?>
<!-- Generator: Adobe Illustrator 15.0.2, SVG Export Plug-In  -->
<!DOCTYPE svg PUBLIC "-//W3C//DTD SVG 1.1//EN" "http://www.w3.org/Graphics/SVG/1.1/DTD/svg11.dtd" [
	<!ENTITY ns_flows "http://ns.adobe.com/Flows/1.0/">
]>
<svg version="1.1"
	 xmlns="http://www.w3.org/2000/svg" xmlns:xlink="http://www.w3.org/1999/xlink" xmlns:a="http://ns.adobe.com/AdobeSVGViewerExtensions/3.0/"
	 x="0px" y="0px" width="50px" height="50px" viewBox="0 0 50 50" overflow="visible" enable-background="new 0 0 50 50"
	 xml:space="preserve">
<defs>
</defs>
<path fill="#DDDDDD" d="M44.7,40.3C48,36.1,50,30.8,50,25C50,11.2,38.8,0,25,0S0,11.2,0,25c0,5.8,2,11.1,5.3,15.3"/>
<path fill="#C6AFAF" d="M44.7,40.3c-0.5-4.6-2.6-8.3-5.7-11.3c-3.6-3.5-8.6-4.7-14.1-4.7c-5.5,0-10.5,1.2-14.1,4.7
	c-3.1,3-5.1,6.7-5.7,11.3C9.8,46.2,17,50,25,50C33,50,40.2,46.2,44.7,40.3z"/>
<path fill="none" d="M5.3,40.3c-0.1,0.8-0.2,1.6-0.2,2.4c0,5.3,2.2,10.2,5.8,13.7s8.6,5.7,14.1,5.7c5.5,0,10.5-2.2,14.1-5.7
	c3.6-3.5,5.8-8.3,5.8-13.7c0-0.8-0.1-1.6-0.2-2.4"/>
<circle fill="#C6AFAF" stroke="#C6AFAF" stroke-width="0" stroke-linecap="round" stroke-linejoin="round" cx="25" cy="13.5" r="9.1"/>
</svg>
